<?xml version="1.0" encoding="utf-8"?>
<!-- Generator: Adobe Illustrator 17.0.0, SVG Export Plug-In . SVG Version: 6.00 Build 0)  -->
<!DOCTYPE svg PUBLIC "-//W3C//DTD SVG 1.1//EN" "http://www.w3.org/Graphics/SVG/1.1/DTD/svg11.dtd">
<svg version="1.1" id="Capa_1" xmlns="http://www.w3.org/2000/svg" xmlns:xlink="http://www.w3.org/1999/xlink" x="0px" y="0px"
	 width="559.472px" height="422.979px" viewBox="0 0 559.472 422.979" enable-background="new 0 0 559.472 422.979"
	 xml:space="preserve">
<g>
	<g>
		<g>
			<path fill="#2B81C0" d="M111.51,210.955l-5.216-3.012l-8.596-4.963l-5.931-3.425l-8.371-4.833l-5.932-3.425l-11.984-6.919
				l-11.984,6.919l-5.931,3.425l-8.087,4.669l-5.932,3.424l-8.596,4.963l-5.216,3.012l-0.284,0.164l-5.931,3.424v6.802v13.475v6.833
				l5.931,3.425l46.03,26.575l46.03-26.575l5.931-3.425v-6.706V221.28v-6.901l-5.647-3.26L111.51,210.955z M65.48,191.228
				l6.053,3.495l-5.911,3.412l-0.142,0.082l-6.053-3.495L65.48,191.228z M53.496,198.147l11.984,6.919l0.142-0.082l11.842-6.837
				l8.371,4.833l-20.071,11.588l-0.142-0.082l-0.142-0.082l-20.071-11.588L53.496,198.147z M39.477,206.241l26.002,15.013
				l0.142,0.082l0.142,0.082l26.003-15.013l8.596,4.963l-34.599,19.975l-0.142-0.082l-0.142-0.082l-34.599-19.975L39.477,206.241z
				 M111.51,238.065l-46.03,26.575l-46.03-26.575v-9.737l46.03,26.575l0.142-0.082l45.888-26.494V238.065z M111.51,217.85v3.63
				l-45.888,26.494l-0.142,0.082L19.45,221.48v-3.676v0l5.5-3.175l40.53,23.4l0.142,0.082l0.142,0.082l40.53-23.4l5.216,3.012
				V217.85z"/>
			<polygon fill="#2B81C0" points="111.51,178.065 105.947,174.854 65.48,151.489 25.012,174.854 19.45,178.065 13.518,181.489 
				13.518,188.335 25.01,181.701 30.942,178.277 65.48,158.339 100.007,178.283 105.937,181.708 111.51,184.928 117.441,188.354 
				117.441,181.489 			"/>
			<polygon fill="#2B81C0" points="111.51,194.491 106.024,191.324 97.653,186.491 91.722,183.067 65.48,167.916 39.238,183.067 
				33.307,186.491 25.219,191.16 19.734,194.328 19.45,194.491 13.518,197.916 13.518,204.717 19.45,201.298 19.45,201.34 
				25.22,198.009 31.151,194.585 39.238,189.916 45.169,186.491 65.48,174.765 85.79,186.491 91.722,189.916 100.093,194.749 
				106.024,198.173 111.51,201.34 111.51,201.287 117.441,204.705 117.441,197.916 111.794,194.655 			"/>
		</g>
		<g>
			<polygon fill="#62B0D6" points="111.51,210.955 106.294,207.943 97.698,202.98 91.767,199.556 83.395,194.723 77.464,191.298 
				65.48,184.379 65.48,191.228 71.533,194.723 65.622,198.135 65.48,198.217 65.48,205.066 65.622,204.984 77.464,198.147 
				85.835,202.98 65.764,214.568 65.622,214.486 65.48,214.404 65.48,221.253 65.622,221.335 65.764,221.417 91.767,206.405 
				100.362,211.367 65.764,231.343 65.622,231.261 65.48,231.179 65.48,238.028 65.622,238.11 65.764,238.192 106.294,214.792 
				111.51,217.804 111.51,217.85 111.51,221.48 65.622,247.973 65.48,248.055 65.48,254.904 65.622,254.822 111.51,228.329 
				111.51,238.065 65.48,264.641 65.48,271.489 111.51,244.914 117.441,241.49 117.441,234.784 117.441,221.28 117.441,214.379 
				111.794,211.119 			"/>
			<polygon fill="#62B0D6" points="25.012,174.854 19.45,178.065 13.518,181.49 13.518,188.335 25.011,181.701 30.942,178.277 
				65.48,158.339 65.48,151.489 			"/>
			<polygon fill="#62B0D6" points="33.307,186.491 25.22,191.16 19.734,194.328 19.45,194.491 13.518,197.916 13.518,204.717 
				19.45,201.298 19.45,201.34 25.22,198.009 31.151,194.585 39.238,189.916 45.169,186.491 65.48,174.765 65.48,167.916 
				39.238,183.067 			"/>
		</g>
	</g>
	<g>
		<rect x="146.25" y="194.486" fill="#FFFFFF" width="3.838" height="34.007"/>
		<path fill="#FFFFFF" d="M163.4,211.587v-0.098c0-9.619,7.189-17.586,17.197-17.586c6.171,0,9.862,2.187,13.264,5.394l-2.624,2.816
			c-2.867-2.721-6.072-4.663-10.688-4.663c-7.531,0-13.165,6.121-13.165,13.943v0.096c0,7.87,5.684,14.041,13.165,14.041
			c4.664,0,7.724-1.798,10.979-4.907l2.526,2.478c-3.546,3.594-7.433,5.974-13.602,5.974
			C170.638,229.075,163.4,221.352,163.4,211.587"/>
		<polygon fill="#FFFFFF" points="205.62,194.486 209.458,194.486 209.458,209.596 229.084,209.596 229.084,194.486 
			232.922,194.486 232.922,228.493 229.084,228.493 229.084,213.19 209.458,213.19 209.458,228.493 205.62,228.493 		"/>
		<path fill="#FFFFFF" d="M266.836,194.486h14.477c3.887,0,6.947,1.118,8.891,3.014c1.409,1.458,2.185,3.254,2.185,5.441v0.098
			c0,4.42-2.72,6.703-5.392,7.869c4.033,1.214,7.287,3.547,7.287,8.21v0.098c0,5.829-4.906,9.278-12.339,9.278h-15.109V194.486z
			 M280.682,209.644c4.614,0,7.821-2.089,7.821-6.074v-0.098c0-3.352-2.672-5.538-7.531-5.538h-10.347v11.709H280.682z
			 M282.042,225.044c5.149,0,8.356-2.283,8.356-6.072v-0.098c0-3.691-3.109-5.829-9.036-5.829h-10.736v11.999H282.042z"/>
		<path fill="#FFFFFF" d="M306.239,214.258v-19.773h3.838v19.531c0,7.336,3.887,11.465,10.396,11.465
			c6.267,0,10.251-3.789,10.251-11.223v-19.773h3.837v19.482c0,9.91-5.684,15.059-14.186,15.059
			C311.971,229.027,306.239,223.877,306.239,214.258"/>
		<rect x="348.847" y="194.486" fill="#FFFFFF" width="3.838" height="34.007"/>
		<polygon fill="#FFFFFF" points="367.502,194.486 371.34,194.486 371.34,224.946 390.482,224.946 390.482,228.493 367.502,228.493 
					"/>
		<path fill="#FFFFFF" d="M402.436,194.486h11.806c10.688,0,18.072,7.336,18.072,16.908v0.096c0,9.572-7.385,17.003-18.072,17.003
			h-11.806V194.486z M414.241,224.946c8.598,0,14.088-5.829,14.088-13.359v-0.098c0-7.529-5.489-13.457-14.088-13.457h-7.967v26.913
			H414.241z"/>
		<polygon fill="#FFFFFF" points="445.288,194.486 469.87,194.486 469.87,197.984 449.126,197.984 449.126,209.596 467.683,209.596 
			467.683,213.094 449.126,213.094 449.126,224.995 470.113,224.995 470.113,228.493 445.288,228.493 		"/>
		<path fill="#FFFFFF" d="M482.698,194.486h14.623c4.178,0,7.529,1.265,9.667,3.402c1.651,1.651,2.622,4.032,2.622,6.703v0.098
			c0,5.636-3.887,8.939-9.23,9.91l10.445,13.895h-4.713l-9.861-13.215h-9.716v13.215h-3.838V194.486z M496.981,211.829
			c5.101,0,8.743-2.622,8.743-6.996v-0.096c0-4.178-3.205-6.705-8.694-6.705h-10.494v13.797H496.981z"/>
		<path fill="#FFFFFF" d="M520.449,223.537l2.38-2.818c3.545,3.207,6.947,4.811,11.659,4.811c4.567,0,7.578-2.429,7.578-5.783
			v-0.096c0-3.158-1.7-4.956-8.841-6.463c-7.823-1.7-11.416-4.225-11.416-9.812v-0.098c0-5.345,4.712-9.278,11.172-9.278
			c4.956,0,8.503,1.409,11.952,4.178l-2.236,2.963c-3.158-2.574-6.316-3.691-9.812-3.691c-4.422,0-7.24,2.429-7.24,5.489v0.098
			c0,3.205,1.749,5.003,9.232,6.607c7.578,1.652,11.076,4.42,11.076,9.619v0.096c0,5.832-4.858,9.621-11.612,9.621
			C528.95,228.98,524.53,227.182,520.449,223.537"/>
	</g>
</g>
</svg>
